<svg version="1.2" xmlns="http://www.w3.org/2000/svg" viewBox="0 0 362 362" width="362" height="362"><style></style><filter id="f0"><feFlood flood-color="#ffffff" flood-opacity="1" /><feBlend mode="normal" in2="SourceGraphic"/><feComposite in2="SourceAlpha" operator="in" /></filter><g filter="url(#f0)"><path  d="m274.8 141.3v-47.1c0-52-42.2-94.2-94.2-94.2-52.1 0-94.2 42.2-94.2 94.2v47.1c-17.4 0-31.4 14.1-31.4 31.4v157c0 17.4 14 31.4 31.4 31.4h188.4c17.3 0 31.4-14 31.4-31.4v-157c0-17.3-14.1-31.4-31.4-31.4zm-157-47.1c0-34.7 28.1-62.8 62.8-62.8 34.6 0 62.8 28.1 62.8 62.8v47.1h-125.6zm157 235.5h-188.4v-157h188.4zm-109.9-67.2v20.1c0 8.7 7 15.7 15.7 15.7 8.6 0 15.7-7 15.7-15.7v-20.1c9.3-5.4 15.7-15.4 15.7-27 0-17.3-14.1-31.4-31.4-31.4-17.4 0-31.4 14.1-31.4 31.4 0 11.6 6.3 21.6 15.7 27z"/></g><filter id="f1"><feFlood flood-color="#ffffff" flood-opacity="1" /><feBlend mode="normal" in2="SourceGraphic"/><feComposite in2="SourceAlpha" operator="in" /></filter><g filter="url(#f1)"></g><filter id="f2"><feFlood flood-color="#ffffff" flood-opacity="1" /><feBlend mode="normal" in2="SourceGraphic"/><feComposite in2="SourceAlpha" operator="in" /></filter><g filter="url(#f2)"></g></svg>