<svg version="1.2" xmlns="http://www.w3.org/2000/svg" viewBox="0 0 32 32" width="32" height="32"><style>.a{fill:#fff}</style><path class="a" d="m16 16c2.8 0 5.4-1.7 6.5-4.3 1.1-2.6 0.5-5.6-1.6-7.6-2-2.1-5-2.7-7.6-1.6-2.6 1.1-4.3 3.7-4.3 6.5q0 1.4 0.5 2.7 0.6 1.3 1.6 2.2 0.9 1 2.2 1.6 1.3 0.5 2.7 0.5zm0-12c2 0 3.8 1.2 4.6 3.1 0.8 1.9 0.4 4-1.1 5.4-1.4 1.5-3.5 1.9-5.4 1.1-1.9-0.8-3.1-2.6-3.1-4.6q0-1 0.4-1.9 0.4-0.9 1.1-1.6 0.7-0.7 1.6-1.1 0.9-0.4 1.9-0.4z"/><path class="a" d="m17 18h-2c-1.4 0-2.9 0.3-4.2 0.8-1.3 0.6-2.6 1.4-3.6 2.4-1 1-1.8 2.3-2.4 3.6-0.5 1.3-0.8 2.8-0.8 4.2q0 0.2 0.1 0.4 0.1 0.2 0.2 0.3 0.1 0.1 0.3 0.2 0.2 0.1 0.4 0.1h22q0.2 0 0.4-0.1 0.2-0.1 0.3-0.2 0.1-0.1 0.2-0.3 0.1-0.2 0.1-0.4c0-1.4-0.3-2.9-0.8-4.2-0.6-1.3-1.4-2.6-2.4-3.6-1-1-2.3-1.8-3.6-2.4-1.3-0.5-2.8-0.8-4.2-0.8zm-10.9 10q0.1-1.6 0.9-3.1 0.8-1.5 2-2.6 1.2-1.1 2.8-1.7 1.5-0.6 3.2-0.6h2q1.7 0 3.2 0.6 1.6 0.6 2.8 1.7 1.2 1.1 2 2.6 0.8 1.5 0.9 3.1z"/></svg>