<svg id="Capa_1" data-name="Capa 1" xmlns="http://www.w3.org/2000/svg" viewBox="0 0 18 18.1"><defs><style>.cls-1{fill:#fff;}</style></defs><title>instagram1</title><path class="cls-1" d="M12,7.4A4.59,4.59,0,0,0,7.4,12a4.6,4.6,0,0,0,9.2,0A4.59,4.59,0,0,0,12,7.4ZM12,15a3,3,0,0,1,0-6h0a3,3,0,0,1,0,6Z" transform="translate(-3 -3)"/><circle class="cls-1" cx="13.8" cy="4.2" r="1.1"/><path class="cls-1" d="M20.5,6.1a4.45,4.45,0,0,0-2.6-2.6,5.38,5.38,0,0,0-2.2-.4A29.55,29.55,0,0,0,12,3a29.55,29.55,0,0,0-3.7.1,8.51,8.51,0,0,0-2.2.4A4.2,4.2,0,0,0,3.5,6.1a5.38,5.38,0,0,0-.4,2.2A30.52,30.52,0,0,0,3,12a29.55,29.55,0,0,0,.1,3.7,8.51,8.51,0,0,0,.4,2.2,4.45,4.45,0,0,0,2.6,2.6,5.45,5.45,0,0,0,2.2.5c1,0,1.3.1,3.7.1a29.55,29.55,0,0,0,3.7-.1,8.51,8.51,0,0,0,2.2-.4A4.45,4.45,0,0,0,20.5,18a5.38,5.38,0,0,0,.4-2.2c0-1,.1-1.3.1-3.7a29.55,29.55,0,0,0-.1-3.7A5.87,5.87,0,0,0,20.5,6.1Zm-1.2,9.5a5.08,5.08,0,0,1-.3,1.7A2.86,2.86,0,0,1,17.3,19a4.67,4.67,0,0,1-1.7.3c-.9,0-1.2.1-3.7.1a30.52,30.52,0,0,1-3.7-.1A5.08,5.08,0,0,1,6.5,19a2.86,2.86,0,0,1-1.7-1.7,4.67,4.67,0,0,1-.3-1.7c0-.9-.1-1.2-.1-3.7a30.52,30.52,0,0,1,.1-3.7,5.08,5.08,0,0,1,.3-1.7A4.41,4.41,0,0,1,6.6,5a4.67,4.67,0,0,1,1.7-.3c1,0,1.2-.1,3.7-.1a29.55,29.55,0,0,1,3.7.1,5.08,5.08,0,0,1,1.7.3,2.86,2.86,0,0,1,1.7,1.7,4.67,4.67,0,0,1,.3,1.7c0,1,.1,1.2.1,3.7-.1,2.3-.1,2.6-.2,3.5Z" transform="translate(-3 -3)"/></svg>